Motion_pl09
version=1
nRows=10
nColumns=43
inDegrees=yes
endheader
time	pelvis_tilt	pelvis_list	pelvis_rotation	pelvis_tx	pelvis_ty	pelvis_tz	hip_flexion_r	hip_adduction_r	hip_rotation_r	knee_angle_r	ankle_angle_r	subtalar_angle_r	mtp_angle_r	hip_flexion_l	hip_adduction_l	hip_rotation_l	knee_angle_l	ankle_angle_l	subtalar_angle_l	mtp_angle_l	lumbar_extension	lumbar_bending	lumbar_rotation	neck_flexion	neck_lateral_bending	neck_rotation	arm_flex_r	arm_add_r	arm_rot_r	elbow_flex_r	pro_sup_r	wrist_flex_r	wrist_dev_r	hand_finger_flex_r	arm_flex_l	arm_add_l	arm_rot_l	elbow_flex_l	pro_sup_l	wrist_flex_l	wrist_dev_l	hand_finger_flex_l
      0.00250000	     -1.48135364	    -18.05192749	     94.33252310	     -0.00341907	      2.01968216	      1.71787429	     41.76549042	     -9.61993576	     -1.22956792	    -46.72291632	     11.05701574	     -0.30322912	      8.59362921	     41.41274966	     -1.73001430	      0.12554723	    -45.10753264	     12.29807613	      6.14366946	      5.04361575	    -23.15354868	     -1.87898884	     -2.17760581	     10.23037171	      5.79582149	     -6.34667645	     24.36090784	    -38.58164601	    -32.63081221	     75.50220915	    136.43361463	     -4.16493605	     13.93998056	    -23.87843713	     18.05856276	    -33.70425076	    -33.98190654	     77.12728856	    128.71928164	    -17.61912005	      6.48208554	      6.61685590
      0.00500000	     -1.46703547	    -18.05955024	     94.32993780	     -0.00332806	      2.01932466	      1.71843649	     41.86381426	     -9.60842550	     -1.24893776	    -46.77715043	     11.09482341	     -0.30870675	      8.60122187	     41.48650641	     -1.75662650	      0.10014670	    -45.12545968	     12.32260960	      6.14104923	      5.04760976	    -23.34908303	     -1.87642666	     -2.17603558	     10.17591037	      5.78742784	     -6.37057318	     24.59569323	    -38.66330469	    -32.62134922	     75.64956554	    136.44379724	     -4.21163523	     13.90593056	    -23.90175235	     18.29782771	    -33.80968546	    -33.96938718	     77.30185121	    128.72574066	    -17.63542056	      6.42654940	      6.62248707
      0.00750000	     -1.44997044	    -17.93224748	     94.31156783	     -0.00316598	      2.01886243	      1.71900835	     41.99867832	     -9.58687579	     -1.26687401	    -47.20924117	     11.14017125	     -0.30410440	      8.62880777	     41.56114867	     -1.82261649	      0.04847141	    -45.45893117	     12.35925186	      6.16015315	      5.06229249	    -23.66632246	     -1.86087895	     -2.16034906	     10.25217971	      5.70310380	     -6.53642038	     25.00482228	    -38.70588923	    -32.57634033	     75.69707638	    136.45149979	     -4.29054500	     13.90990427	    -23.95834764	     18.62651292	    -33.94278593	    -33.93543524	     77.39806995	    128.74930514	    -17.63242156	      6.38587051	      6.66780694
      0.01000000	     -1.44501255	    -17.95624540	     94.31240007	     -0.00304211	      2.01847043	      1.71960381	     42.10246881	     -9.58345760	     -1.28311710	    -47.23521682	     11.16089791	     -0.29966256	      8.63579272	     41.65202132	     -1.84075251	      0.03013477	    -45.47445881	     12.39309242	      6.16517942	      5.06779854	    -23.84409643	     -1.86693357	     -2.17016139	     10.19569051	      5.68182467	     -6.57833969	     25.24062630	    -38.79837887	    -32.54975448	     75.84237465	    136.45730672	     -4.32236525	     13.87783624	    -23.97521868	     18.87250959	    -34.05767447	    -33.91764769	     77.57246154	    128.76060771	    -17.64851220	      6.34498934	      6.67214168
      0.01250000	     -1.44408753	    -17.86519903	     94.30470019	     -0.00294737	      2.01790871	      1.72025987	     42.28734484	     -9.59677389	     -1.29906881	    -47.67823023	     11.17525041	     -0.27401920	      8.66352425	     41.77951108	     -1.87587527	     -0.01369641	    -45.82548678	     12.45480104	      6.20769727	      5.08677022	    -24.11569559	     -1.84994629	     -2.17196226	     10.28671226	      5.59036828	     -6.74833672	     25.67128469	    -38.87775887	    -32.46504760	     75.89084683	    136.45300265	     -4.35361251	     13.89114771	    -24.00956479	     19.21627221	    -34.19995401	    -33.84701660	     77.64021626	    128.80005734	    -17.63809701	      6.35865907	      6.71222421
      0.01500000	     -1.44584695	    -17.83977718	     94.30187641	     -0.00285636	      2.01737193	      1.72093888	     42.45481165	     -9.61128965	     -1.29918419	    -47.93158898	     11.18244392	     -0.22924499	      8.69143130	     41.90941932	     -1.89814421	     -0.05015072	    -46.02616262	     12.52060567	      6.26554734	      5.10645261	    -24.32478710	     -1.83719112	     -2.17731087	     10.33859594	      5.51336975	     -6.85974775	     26.02902538	    -38.98247119	    -32.36817907	     75.98621491	    136.44966576	     -4.37169952	     13.91251435	    -24.03843946	     19.52799352	    -34.34109153	    -33.76812747	     77.74765962	    128.84751085	    -17.63454848	      6.38729726	      6.75389557
      0.01750000	     -1.44920183	    -17.82521956	     94.30020609	     -0.00276898	      2.01679328	      1.72160903	     42.64137836	     -9.63194433	     -1.31015534	    -48.19991866	     11.20148034	     -0.18807320	      8.72044369	     42.04852175	     -1.92049413	     -0.09095536	    -46.22676137	     12.58786961	      6.32387409	      5.12637982	    -24.52123994	     -1.82506271	     -2.17853023	     10.38265564	      5.46817328	     -6.90820873	     26.36328345	    -39.09629712	    -32.29546466	     76.09504193	    136.44751189	     -4.38154421	     13.94284959	    -24.06193376	     19.83982057	    -34.48058331	    -33.69600356	     77.85463850	    128.89766868	    -17.63699721	      6.42939857	      6.79127073
      0.02000000	     -1.45451695	    -17.81363308	     94.30120675	     -0.00267950	      2.01615086	      1.72231196	     42.84682952	     -9.65888289	     -1.32000400	    -48.49845527	     11.22866889	     -0.14640046	      8.75109467	     42.20575756	     -1.94243257	     -0.13640998	    -46.45147804	     12.66141959	      6.38639894	      5.14752849	    -24.70950997	     -1.81481099	     -2.17794877	     10.43961920	      5.44724289	     -6.91186396	     26.70200313	    -39.21271590	    -32.23197731	     76.21197970	    136.44709994	     -4.38039831	     13.98005587	    -24.08057459	     20.16618309	    -34.62020663	    -33.60664383	     77.95713016	    128.95305646	    -17.63763119	      6.48332279	      6.82761688
      0.02250000	     -1.47338343	    -17.80851189	     94.30605648	     -0.00254161	      2.01553752	      1.72298630	     43.07983630	     -9.68422354	     -1.33025367	    -48.83730461	     11.26215381	     -0.10366178	      8.78362208	     42.36971022	     -1.96738151	     -0.18601357	    -46.71056671	     12.74003400	      6.45552357	      5.17011666	    -24.89434015	     -1.80229338	     -2.17469062	     10.51755342	      5.44494068	     -6.88406771	     27.04102945	    -39.31402797	    -32.16617932	     76.32923979	    136.44872571	     -4.36479966	     14.02579711	    -24.09431731	     20.49949893	    -34.74547304	    -33.48686871	     78.04928518	    129.01476876	    -17.63272501	      6.55077413	      6.86512518
      0.02500000	     -1.46179500	    -17.84059497	     94.30784716	     -0.00246194	      2.01497286	      1.72364661	     43.20786659	     -9.70095381	     -1.34441649	    -48.88313704	     11.28963334	     -0.09760758	      8.79197796	     42.48607283	     -1.97819135	     -0.21043843	    -46.72923263	     12.78035543	      6.46866852	      5.17688728	    -25.05012384	     -1.80432083	     -2.17441493	     10.46263974	      5.45182619	     -6.87316828	     27.27735269	    -39.43645356	    -32.16712548	     76.48756795	    136.45668586	     -4.38360937	     14.00606194	    -24.10440160	     20.75618639	    -34.88148547	    -33.47503253	     78.21583317	    129.03316995	    -17.65281927	      6.53318338	      6.86538652
